<svg xmlns="http://www.w3.org/2000/svg" version="1.1" xmlns:xlink="http://www.w3.org/1999/xlink" xmlns:svgjs="http://svgjs.dev/svgjs" viewBox="0 0 6.389246803900256 5.038503814795415"><g transform="matrix(0.8410379331761014,0,0,0.8410379331761014,2.0224829133849282,1.9387827323231477)"><g><path d=" M -0.863709834911808 1.5854225218285507 L -0.874588892465089 1.585565723617651 L -0.9025114954056112 1.530848499226917 L -1.2751192166054826 1.5357531605036 L -1.3015919014313648 1.5911863938398352 L -1.3124709589846457 1.5913295956289353 L -1.3149590900702623 1.4023059706406795 Q -1.3158988518112325 1.3309121554472734 -1.2868628958532853 1.2893863892098136 Q -1.2578269398953381 1.2478606229723541 -1.2061514165172538 1.247180414474128 Q -1.1680747150807704 1.246679208212277 -1.138497143657215 1.2721321150931124 Q -1.1089195722336596 1.2975850219739478 -1.0927260200680549 1.3395355174210797 L -0.9047140251164654 1.2085295688755135 L -0.8801558620163605 1.1626423612338554 L -0.8692768044630795 1.1624991594447551 L -0.8678358364602585 1.2719696760746444 L -1.0728195085033931 1.4052392007069199 L -1.0720766492224356 1.4616743117645645 L -0.9041311982436615 1.4594636341453298 L -0.8769248716497865 1.408101097279756 L -0.8660458140965056 1.4079578954906558 L -0.863709834911808 1.5854225218285507 M -1.27726697604084 1.4242517706942892 L -1.2767389194435328 1.4643682954220127 L -1.1081135273676785 1.462148667690959 L -1.1086952846358984 1.4179524963807553 Q -1.1092501915686617 1.3757961483617918 -1.1337505800436638 1.3485762628996156 Q -1.1582509685186657 1.3213563774374395 -1.195647728858069 1.3218486335874715 Q -1.2344043713916322 1.322358789961141 -1.2561489276298927 1.3495073419299133 Q -1.2778934838681533 1.3766558938986853 -1.27726697604084 1.4242517706942892 M -0.7980923955252964 0.8437433284619785 Q -0.8094593534009463 0.8913655277880618 -0.8360348255143851 0.9280170254647985 Q -0.8626102976278238 0.9646685231415353 -0.8998881678039191 0.9875798215581285 Q -0.9371660379800143 1.0104911199747217 -0.9821209033287422 1.0172383921255799 Q -1.02707576867747 1.023985664276438 -1.0760208068737223 1.012302957570909 Q -1.1249658450699744 1.0006202508653799 -1.1620269896717232 0.9742965512620136 Q -1.199088134273472 0.9479728516586473 -1.2219994326900654 0.910694981482552 Q -1.2449107311066587 0.8734171113064568 -1.2520676501825287 0.8287140184678013 Q -1.259224569258399 0.7840109256291459 -1.247857611382749 0.7363887263030627 Q -1.2364906535070992 0.6887665269769795 -1.2099151813936604 0.6521150293002428 Q -1.1833397092802216 0.615463531623506 -1.1460618391041264 0.5925522332069127 Q -1.108783968928031 0.5696409347903194 -1.0637501663718334 0.562562952921919 Q -1.0187163638156358 0.5554849710535187 -0.9697713256193836 0.5671676777590478 Q -0.9208262874231314 0.5788503844645768 -0.8838440800288524 0.6055047937854854 Q -0.8468618726345734 0.632159203106394 -0.8239505742179801 0.6694370732824892 Q -0.8010392758013869 0.7067149434585844 -0.7938823567255167 0.7514180362972398 Q -0.7867254376496465 0.7961211291358953 -0.7980923955252964 0.8437433284619785 M -0.8280058789807292 0.8226212190133096 Q -0.8183755396694148 0.7822746334731558 -0.8322787385048976 0.7467973581812026 Q -0.8461819373403805 0.7113200828892495 -0.8804395297868517 0.6849664615105571 Q -0.9146971222333229 0.6586128401318646 -0.9669492576049976 0.6461407613516377 Q -1.0311069428081931 0.6308269431024982 -1.0841118331298851 0.6405464699420821 Q -1.1371167234515773 0.6502659967816661 -1.1722565936766338 0.6803290891137297 Q -1.2073964639016905 0.7103921814457933 -1.2179740497026423 0.7547072835964541 Q -1.227604389013957 0.7950538691366079 -1.214189774310956 0.8311136266561757 Q -1.2007751596079548 0.8671733841757436 -1.1665965043689535 0.8938577152719782 Q -1.132417849129952 0.920542046368213 -1.0801657137582772 0.93301412514844 Q -1.0160080285550819 0.9483279433975794 -0.9625934913083777 0.9383566440479231 Q -0.9091789540616736 0.9283853446982666 -0.8739601466291472 0.8979915426486608 Q -0.8387413391966209 0.8675977405990549 -0.8280058789807292 0.8226212190133096 M -0.6955125505931711 0.4874099734542313 L -0.7051910251115637 0.482439909974071 L -0.7042262650392337 0.42101747402430717 L -1.035714017294183 0.25079279982881536 L -1.0850711499584764 0.28736491837777745 L -1.094749624476869 0.2823948548976171 L -1.0087054004765932 0.11483626479794384 L -0.9990269259582005 0.11980632827810417 L -1.0030979757056309 0.1872778108018634 L -0.671005318793282 0.35781311396486526 L -0.5973862534934068 0.21445071016117367 L -0.6793751978729166 0.11807429707408246 L -0.6744051343927563 0.10839582255568969 L -0.5370917771630601 0.17890859818046462 L -0.6955125505931711 0.4874099734542313 M -0.4622692755668659 0.06385334763888081 L -0.4706407130650701 0.05690399988433145 L -0.45638823380317445 -0.0028497718367008207 L -0.7431099681166687 -0.24086493243001683 L -0.7992196348695855 -0.2158578994817314 L -0.8075910723677897 -0.22280724723628076 L -0.5895552865688032 -0.4854610987424379 L -0.49956233346310785 -0.41075561038103225 L -0.5065116812176572 -0.402384172882828 L -0.5959595431761323 -0.41919231350151565 L -0.6980280883210762 -0.2962368252466413 L -0.5740261703789263 -0.19329961163237874 L -0.5019266874254766 -0.2801532756762474 L -0.5237256883234226 -0.34332130841315756 L -0.5167763405688732 -0.3516927459113618 L -0.40114586012492753 -0.2557048800516486 L -0.4080952078794769 -0.24733344255344436 L -0.4731498710253996 -0.256264892769984 L -0.5452493539788493 -0.16941122872611525 L -0.41025992432030645 -0.05735299618400663 L -0.29646435483956046 -0.19443528521710063 L -0.3368626547122291 -0.2862995838722253 L -0.3299133069576797 -0.29467102137042955 L -0.23207213119741793 -0.21345051948913374 L -0.4622692755668659 0.06385334763888081 M -0.12759784029292176 -0.31458317983320516 L -0.13423592230201428 -0.32320352015366594 L -0.10719065445241277 -0.37835966112584885 L -0.3345449632638316 -0.6736063171016313 L -0.3947806411588957 -0.6615518777317524 L -0.4014187231679882 -0.6701722180522132 L -0.25056276755992424 -0.7863386532113323 Q -0.18698775769652579 -0.8352945080283897 -0.1306257664900305 -0.8417912723952834 Q -0.07426377528353512 -0.8482880367621772 -0.03567992360568484 -0.7981823086494988 Q -0.01286151669942931 -0.7685498887979149 -0.015433033988857314 -0.7300941051128802 Q -0.01800455127828529 -0.6916383214278456 -0.042321349483705556 -0.65188609727577 Q -0.06663814768912583 -0.6121338731236943 -0.11081739183148744 -0.5781137028270951 L -0.14853138073350347 -0.5490720940373153 L -0.05061967109938878 -0.42192207431051854 L 0.015542490765992123 -0.43854019506164854 L 0.022180572775084645 -0.4299198547411877 L -0.12759784029292176 -0.31458317983320516 M -0.27838886003637586 -0.7177075015563297 L -0.17052002738862243 -0.5776269713488418 L -0.12957341086643362 -0.6091578608920312 Q -0.08701048053415841 -0.6419333908119256 -0.07770145790332059 -0.679998762183535 Q -0.06839243527248273 -0.7180641335551445 -0.09162572230430657 -0.7482353246767574 Q -0.12066733109408634 -0.7859493135787733 -0.15804270777301352 -0.7837741772363093 Q -0.19541808445194067 -0.7815990408938452 -0.24121364240438867 -0.7463342302205412 L -0.27838886003637586 -0.7177075015563297 M 0.2767760339096055 -0.6056772929723051 L 0.272137017663241 -0.6155187323114448 L 0.31036176370172464 -0.6636073504065142 L 0.15147545726374173 -1.0006766477720492 L 0.0900556299934358 -1.0017952263726784 L 0.08541661374707135 -1.0116366657118179 L 0.25579653230592747 -1.0919496344770028 L 0.26043554855229195 -1.082108195137863 L 0.21605990292684604 -1.031120191888816 L 0.3752361478802267 -0.6934358045645848 L 0.5210124680912336 -0.7621512327138583 L 0.5148144305102481 -0.8885323402028525 L 0.5246558698493877 -0.893171356449217 L 0.5904719128446836 -0.7535459358251724 L 0.2767760339096055 -0.6056772929723051 M 0.6948207631734126 -0.7931340584359747 L 0.692440573496363 -0.8037505125097824 L 0.729333720203066 -0.8350189458903932 L 0.8082232111971941 -1.2819842244195954 L 0.844717272075908 -1.2901661264344533 L 1.1044444974995646 -0.9212087408548594 L 1.1542563257069953 -0.907288763461437 L 1.156636515384045 -0.8966723093876294 L 0.981465023166219 -0.8573991797163122 L 0.9790848334891693 -0.8680156337901198 L 1.0322686659765656 -0.9043301703003465 L 0.9563904320183979 -1.0127569013743283 L 0.7964800925316704 -0.9769052943637697 L 0.7749684165415458 -0.8459470422522822 L 0.8357627034927663 -0.835883073149951 L 0.8381428931698158 -0.8252666190761434 L 0.6948207631734126 -0.7931340584359747 M 0.8035593432479111 -1.0168208779032422 L 0.9336109056520547 -1.0459782014470989 L 0.8327335174394243 -1.1913098791618981 L 0.8035593432479111 -1.0168208779032422 M 1.3352003535004762 -0.8949774103819214 L 1.335370450113888 -0.9058560806656512 L 1.3969882119933983 -0.932095962924533 L 1.3996672336546379 -1.1034350198932772 L 1.252605542900434 -1.3104394640786978 L 1.2101428650000867 -1.3349063107396666 L 1.2103129616134987 -1.3457849810233964 L 1.3857315199386417 -1.3430421731321274 L 1.3855614233252296 -1.3321635028483976 L 1.3355447727755354 -1.308462560508698 L 1.3355022486221824 -1.3057428929377655 L 1.4532854583964245 -1.1400012280032148 L 1.564623610434903 -1.3014803161250414 L 1.564666134588256 -1.304199983695974 L 1.514745632944521 -1.3301436055641296 L 1.514915729557933 -1.3410222758478594 L 1.6617777783882852 -1.338725971566797 L 1.6616076817748733 -1.3278473012830672 L 1.6170622594820587 -1.306101061314861 L 1.4703892215372198 -1.1030093087988322 L 1.467699568837642 -0.9309903349373547 L 1.5284668476500922 -0.9028368657775876 L 1.52829675103668 -0.8919581954938578 L 1.3352003535004762 -0.8949774103819214 M 1.7737158335214447 -0.8691873892213753 L 1.776398225306851 -0.8797315427819786 L 1.8364839821709216 -0.8925123182698669 L 1.9283559008210918 -1.2536495777205314 L 1.8816821028840534 -1.2935895700356597 L 1.8843644946694598 -1.3041337235962631 L 2.2151873126333896 -1.2199736813291366 L 2.1863516009402706 -1.1066240305526507 L 2.1758074473796674 -1.109306422338057 L 2.1525868134705006 -1.1973077618781827 L 1.997719558049139 -1.2367053912263395 L 1.9579866297278063 -1.0805201166099025 L 2.067382222919066 -1.0526903018363107 L 2.1150742692668727 -1.0994969842134954 L 2.1256184228274764 -1.096814592428089 L 2.0885678862915498 -0.9511734713722553 L 2.0780237327309465 -0.9538558631576617 L 2.0581615011567314 -1.0164447739717368 L 1.9487659079654718 -1.0442745887453284 L 1.9055123404257932 -0.8742501125805996 L 2.078172854980673 -0.8303259470945693 L 2.1437972206477647 -0.9062503478547455 L 2.154341374208368 -0.903567956069339 L 2.1229909202164303 -0.7803331613297875 L 1.7737158335214447 -0.8691873892213753 M 2.259002860376316 -0.7349101350751218 L 2.2641618108771215 -0.7444892597600938 L 2.325553505846806 -0.7423198845621971 L 2.501602691686787 -1.069207514436868 L 2.4672493133265405 -1.1201474692389461 L 2.472408263827346 -1.129726593923918 L 2.566403424798634 -1.079104392134766 L 2.643837116577696 -0.6736265316078747 L 2.777969829598634 -0.9226837734171477 L 2.7288791562848393 -0.9792436336857011 L 2.7340381067856447 -0.9888227583706732 L 2.8855080158667654 -0.9072468535766893 L 2.8803490653659596 -0.8976677288917173 L 2.8198785000953865 -0.9001133649761245 L 2.6231935122521843 -0.5349092363615654 L 2.597449614661322 -0.5487739158324797 L 2.512880093585008 -0.9897610531788232 L 2.367139741937258 -0.7191507808283631 L 2.4162304152510528 -0.6625909205598096 L 2.4110714647502474 -0.6530117958748376 L 2.259002860376316 -0.7349101350751218 M 2.9473570920030325 -0.26618849692814867 Q 2.9116966539840434 -0.2997356989022898 2.892419097167537 -0.34027741326153177 Q 2.8731415403510305 -0.38081912762077375 2.8711218677818726 -0.423330976824418 Q 2.8691021952127143 -0.4658428260280623 2.8839625250320213 -0.5069458745483536 Q 2.898822854851328 -0.5480489230686448 2.9314381901039654 -0.5827187933648845 Q 2.967315058881866 -0.6208556506907482 3.011716317379927 -0.6397700008986827 Q 3.0561175758779875 -0.6586843511066173 3.1034795369432002 -0.6594089503456997 Q 3.150841498008413 -0.660133549584782 3.1953821830577054 -0.6429729034623383 Q 3.239922868106998 -0.6258122573398944 3.2765738738487364 -0.5913331886442494 Q 3.3028239185016037 -0.5666387205243955 3.3183538212079617 -0.5464274830083239 Q 3.3338837239143198 -0.5262162454922522 3.343369330856606 -0.5070230888749461 Q 3.3528549377988925 -0.4878299322576399 3.360199818866861 -0.46784982409733705 L 3.284894717428781 -0.3818465352218501 L 3.2769701756467833 -0.38930146899388146 L 3.297221740918029 -0.48228273433300484 Q 3.2900199377039607 -0.5133315157980775 3.2808113231929843 -0.5313304885128809 Q 3.2716027086820083 -0.5493294612276842 3.2532772058111386 -0.5665689955755068 Q 3.2166262000693995 -0.6010480642711518 3.172058001844092 -0.6112325479080205 Q 3.1274898036187837 -0.6214170315448891 3.083189434548296 -0.6070758007672127 Q 3.0388890654778082 -0.5927345699895362 3.003012196699907 -0.5545977126636725 Q 2.957816660706967 -0.5065551781103118 2.943002193963202 -0.45607292404912847 Q 2.928187727219436 -0.405590669987945 2.9401552654424186 -0.3602557074437733 Q 2.952122803665401 -0.31492074489960153 2.9882785255457653 -0.2809076095647084 Q 3.0026417575256357 -0.2673955421029016 3.018388114337451 -0.2558499348362827 Q 3.034134471149266 -0.24430432756966386 3.0531570367366565 -0.23574509872160554 L 3.1328316414252417 -0.32043863901670533 L 3.10785464555371 -0.3822133464399987 L 3.1153095793257415 -0.39013788822199635 L 3.2460645187287027 -0.26713148098347894 L 3.238609584956671 -0.2592069392014813 L 3.1834386467873452 -0.270029784553625 L 3.1098211757885355 -0.19177493445639826 Q 3.082848392567739 -0.1928755548832109 3.053426703216084 -0.20328200459935847 Q 3.024005013864429 -0.21368845431550598 2.99632965595329 -0.2299209083656602 Q 2.9686542980421513 -0.24615336241581437 2.9473570920030325 -0.26618849692814867 M 3.188184271241957 -0.019078531029266564 L 3.197275808872448 -0.025055013566124107 L 3.2502605957915174 0.006029689346093561 L 3.5616457596358395 -0.19866483754127723 L 3.554118660869226 -0.2596319531377826 L 3.5632101984997173 -0.2656084356746401 L 3.6666780524190634 -0.10821119044676186 L 3.6575865147885724 -0.10223470790990433 L 3.600866426283967 -0.13900162184117895 L 3.288913041337739 0.06606643520474542 L 3.3774396889149414 0.20073483635639577 L 3.5016943597000267 0.17683134732048172 L 3.5076708422368843 0.18592288495097287 L 3.378684652104291 0.27071423094263924 L 3.188184271241957 -0.019078531029266564 M 3.4379467441757883 0.3970356878323208 L 3.4479559702075324 0.39277073833139436 L 3.494836901479141 0.4334056479917677 L 3.8376528930663825 0.28733112758503726 L 3.840818091953495 0.2253714704200317 L 3.8508273179852397 0.22110652091910526 L 3.9219986627819496 0.38813548032383793 L 3.911989436750205 0.3924004298247644 L 3.8653750648224046 0.35239109679137504 L 3.522559073235163 0.4984656171981055 L 3.5191273150042424 0.559799697736127 L 3.5091180889724978 0.5640646472370534 L 3.4379467441757883 0.3970356878323208 M 3.5839276852509334 0.8345254998088198 Q 3.5738691640052602 0.7928830725218527 3.5746962264181357 0.7615530682485494 Q 3.5755232888310107 0.730223063975246 3.583222103577893 0.6954843326873422 L 3.6906890129412715 0.6625306774745522 L 3.6932435580195375 0.6731065320236232 L 3.6296574794757483 0.7255418885631096 Q 3.6160768104642647 0.75330668334356 3.6129123369344605 0.7778559421364273 Q 3.609747863404656 0.8024052009292943 3.6151762716959714 0.8248788918460703 Q 3.6244364976046866 0.8632163645864527 3.649614803641815 0.8805697880268208 Q 3.674793109678943 0.8979232114671891 3.7091646369634237 0.8896209399628238 Q 3.736265264245418 0.8830749181997666 3.7495058487769377 0.8669349392263079 Q 3.7627464333084575 0.8507949602528495 3.769808200080343 0.8235554402486442 Q 3.776869966852228 0.7963159202444391 3.7855937999227116 0.7571322662984588 Q 3.796731697054681 0.7047735034456404 3.8154518115931837 0.6736686338644102 Q 3.8341719261316864 0.6425637642831802 3.8791193079652384 0.6317069477005486 Q 3.9029149807006482 0.6259592212744496 3.9278522098421194 0.6321779834298761 Q 3.9527894389835905 0.6383967455853025 3.9750954701022385 0.6539955075789321 Q 3.9974015012208866 0.6695942695725619 4.013884741263448 0.6914963881390223 Q 4.03036798130601 0.7133985067054827 4.036754344001675 0.7398381430781602 Q 4.0442583201690825 0.7709047158160562 4.043533441929654 0.7997615928393587 Q 4.042808563690224 0.8286184698626612 4.035314117290234 0.8584109466505632 L 3.931152162473441 0.8905663065263949 L 3.9285976173951744 0.879990451977324 L 3.9910213731877215 0.8285354044819377 Q 4.002437055764112 0.8033922186990047 4.005556820014416 0.7844502053154563 Q 4.00867658426472 0.7655081919319079 4.003407835040796 0.743695491924449 Q 3.996542495142955 0.7152728828238206 3.972823475352102 0.7010647548626454 Q 3.9491044555612493 0.6868566269014703 3.920020855551304 0.6938816258667024 Q 3.887632300994774 0.7017049201688929 3.873994157089345 0.7263355967900254 Q 3.8603560131839156 0.7509662734111578 3.8500611206684052 0.8010227454012421 Q 3.8404719283417124 0.845312312914616 3.8292622024067833 0.8756524191185134 Q 3.818052476471854 0.9059925253224109 3.7992732987448363 0.9238201018233568 Q 3.780494121017819 0.9416476783243029 3.746783584642655 0.9497902907612765 Q 3.7157170119047587 0.9572942669286835 3.688728157821516 0.9498221751684438 Q 3.661739303738274 0.9423500834082041 3.640276277236085 0.9244490305518405 Q 3.6188132507338957 0.9065479776954767 3.6044039902728557 0.88309556602917 Q 3.5899947298118158 0.8596431543628634 3.5839276852509334 0.8345254998088198 M 3.652509270814349 1.112181582025299 L 3.6633889322723125 1.112095753358206 L 3.6910225935443792 1.1669594678214168 L 4.063650998479643 1.1640198359734926 L 4.090415644497396 1.1087269781748186 L 4.101295305955359 1.108641149507726 L 4.102716843254082 1.2888355424052529 L 4.091837181796118 1.2889213710723457 L 4.0642142491074384 1.2354176142913806 L 3.903739242602471 1.2366835871309976 L 3.9054826374027907 1.4576767104958892 L 4.065957643907758 1.4564107376562723 L 4.092727654217205 1.4017978586987212 L 4.103607315675168 1.4017120300316284 L 4.1050288529738905 1.5819064229291555 L 4.094149191515927 1.5819922515962481 L 4.06651553024386 1.5271285371330376 L 3.693887125308597 1.5300681689809617 L 3.667122479290844 1.5853610267796356 L 3.6562428178328803 1.5854468554467283 L 3.654821280534158 1.4052524625492013 L 3.6657009419921214 1.4051666338821085 L 3.6933292389724945 1.4593503695041963 L 3.8680838011410397 1.4579717465390203 L 3.86634040634072 1.2369786231741287 L 3.6915858441721747 1.2383572461393046 L 3.664810469571035 1.2922901462557332 L 3.653930808113071 1.2923759749228259 L 3.652509270814349 1.112181582025299" fill="#fffcf7" fill-rule="nonzero"></path></g><g transform="matrix(1,0,0,1,0,0)" clip-path="url(#SvgjsClipPath122779)"><g clip-path="url(#SvgjsClipPath122775520d72de-7edb-4f00-847f-dcd179da6ee3)"><path d=" M 0.5267921653987293 1.2840734255172226 L 0.5267921653987293 1.2840734255172226 L 0.5267921653987293 1.3978986618939573 L 0.37932400201409194 1.3978986618939573 L 0.3118979691357559 1.36940730808414 L 0.3118979691357559 1.6380600981284898 L 0.37932400201409194 1.6095687443186733 L 0.5267921653987293 1.6095687443186733 L 0.5267921653987293 1.8363080544656782 L 0.8322769515736044 1.8363080544656782 L 0.8322769515736044 1.9421430956780363 L 1.0075005297397597 1.9421430956780363 L 0.9339066269099732 1.9732277584447122 C 0.8668903701349103 1.972537149868576 0.8004825856348509 1.9859954439041034 0.7390229632735771 2.012723152963364 C 0.6610835157052707 2.045630140942968 0.6408977595005291 2.084074193992622 0.6541446620098892 2.115369125053098 C 0.6673915645192493 2.1466640561135732 0.708954597260264 2.1590348407321036 0.7868940448285685 2.1261278527524996 C 0.8489316236561164 2.100730411925944 0.9049048929023454 2.0625152505032984 0.9511486270015247 2.0139847627261602 L 1.048783204755706 1.9727371324258471 L 1.0683732007946827 2.035817620565663 L 0.5268622548299954 2.7332074616669626 L 0.7183115363343388 2.7332074616669626 L 1.200386644585065 2.112074921783574 L 1.200386644585065 2.733277551098229 L 1.3514644136799234 2.733277551098229 L 1.3514644136799234 2.1121450112148406 L 1.8335395219306516 2.733277551098229 L 2.024953758719359 2.733277551098229 L 1.4833376786077734 2.03588770999693 L 1.5124247925833552 1.9422482298249362 L 1.7194339278288497 1.9422482298249362 L 1.7194339278288497 1.8364131886125783 L 2.024918714003726 1.8364131886125783 L 2.024918714003726 1.6459802038616003 L 2.1632051618924555 1.6459802038616003 L 2.1632051618924555 1.7303328343907876 L 2.7880874863486 1.9723866852695149 L 2.7880874863486 1.1308228840531025 L 2.1632051618924555 1.3728416902161968 L 2.1632051618924555 1.474471365552567 L 2.024883669288093 1.474471365552567 L 2.024883669288093 1.2889796857058746 C 2.345292620497649 1.2449907565493314 2.58410465090223 0.9713211159936102 2.5843024649413615 0.6479067026271779 C 2.5843024649413615 0.2900777114530335 2.2942247534883293 9.905152046602584e-16 1.936395762314184 9.905152046602584e-16 C 1.6050094866206865 0.00003931496175590791 1.3270675562239769 0.2501311101362076 1.2921687548285004 0.5796746412892767 C 1.25723777683696 0.2501334834800889 0.9792940063018946 0.0000536364163097087 0.6479067026271766 9.905152046602584e-16 C 0.2900777114530305 9.905152046602584e-16 -1.9810304093205167e-15 0.2900777114530335 -1.9810304093205167e-15 0.6479067026271782 C 0.0000975677868723079 0.9589324857364402 0.22123845616067273 1.2259874715433503 0.5267921653987412 1.2840734255172248 Z M 2.7175074290632724 1.4705814021172787 L 2.218610857308595 1.505380804741077 L 2.7175074290632724 1.4271259547320718 Z M 2.7175074290632724 1.529947150399972 L 2.7175074290632724 1.573122240060113 L 2.218610857308595 1.5515346952300424 Z M 2.7175074290632724 1.2206424902210742 L 2.7175074290632724 1.2662006205442744 L 2.218610857308595 1.4129328449006133 Z M 2.7175074290632724 1.324024401339106 L 2.7175074290632724 1.3682858771838768 L 2.218610857308595 1.4591918695364783 Z M 1.546067719591255 1.6069053459305476 L 1.403926352982871 1.6069053459305476 L 1.403926352982871 1.464763979322162 L 1.546067719591255 1.464763979322162 Z M 1.6030854719265228 1.6069053459305476 L 1.6030854719265228 1.464763979322162 L 1.745226838534907 1.464763979322162 L 1.745226838534907 1.6069053459305476 Z M 0.7690212398556221 1.2840734255172226 C 1.04949517458702 1.2307040570111036 1.2619822900758355 1.0000411731199021 1.2922037995441285 0.7161387639650788 C 1.3223950098950923 1.000030026828276 1.5348580871926436 1.2306977183057375 1.8153162698013727 1.2840734255172226 Z M 1.3469086006476032 1.464763979322162 L 1.3469086006476032 1.6069053459305476 L 1.204837323470485 1.6069053459305476 L 1.204837323470485 1.464763979322162 Z M 0.8064139514362791 1.6069053459305476 L 0.8064139514362791 1.464763979322162 L 0.9485553180446652 1.464763979322162 L 0.9485553180446652 1.6069053459305476 Z M 1.147749481703951 1.464763979322162 L 1.147749481703951 1.6069053459305476 L 1.0056081150955651 1.6069053459305476 L 1.0056081150955651 1.464763979322162 Z M 1.908605302817032 1.7787996761115463 C 1.8710373676582088 1.780026241158709 1.8174890421706296 1.783005041987534 1.7529717206898536 1.78437178589723 C 1.7422129929904508 1.784582054191029 1.730753370978385 1.784862411916095 1.7194339278288517 1.785142769641161 C 1.6629068015124506 1.78654455826649 1.6000015369507987 1.7884019281950514 1.5329609959444273 1.7891729119389825 C 1.5109879592423912 1.789523359095315 1.4885943859527566 1.7897686721047472 1.4659554996536917 1.7899789403985467 C 1.4696968715321268 1.805068170302964 1.4716146679071163 1.8205517287660682 1.4716677883019074 1.836097786171879 L 1.4716677883019074 1.8363080544656782 C 1.4716547214601243 1.864119195442955 1.4656796845223248 1.8916043653568277 1.4541454304852934 1.9169109004221028 C 1.4502000535840884 1.9256402992799295 1.4456081012137025 1.9340627833470432 1.4404079019570688 1.9421080509624025 C 1.436015617950463 1.948951357428187 1.431205356311372 1.9555171890085508 1.426004523831807 1.9617681364326456 C 1.4059364737502735 1.9857762177616725 1.3804305007762587 2.004650397480078 1.3516045925424596 2.0168233846924517 C 1.3316971145944074 2.025135065558266 1.3105445556655018 2.0300738209184863 1.289014730421508 2.0314370311115093 C 1.284599096251722 2.0317524335522084 1.2802535515132 2.032102880708541 1.275767827912146 2.032102880708541 C 1.2712821043110938 2.032102880708541 1.2673921408758044 2.0317524335522084 1.2632568644310829 2.0314720758271423 C 1.241688361848137 2.030188549568635 1.22048615325473 2.0253084881493706 1.2005268234475952 2.017033652986251 C 1.1716053998463472 2.0049547174007896 1.1459976677577455 1.9861244423267197 1.1258465344331832 1.962118583588978 C 1.1213685287977853 1.9568391995875085 1.1171691320445793 1.9513296846271773 1.113265481520856 1.9456125225257264 C 1.112494497776923 1.944491091625463 1.1118636928955241 1.9432645265783 1.111127753867227 1.9421080509624031 C 1.1059407427313672 1.934054948024963 1.101349332632643 1.9256334585836778 1.0973902253389984 1.9169109004221099 C 1.0957781684198722 1.9134064288587866 1.094306290363276 1.9099019572954639 1.0929045017379482 1.906152172722708 C 1.0842680199849268 1.8838643083868307 1.0798130275331728 1.8601756285233602 1.0797627333754862 1.8362730097500453 L 1.0797627333754862 1.8360627414562458 C 1.0798275648069446 1.8204690871753362 1.081757042950511 1.804939141141745 1.0855100667393363 1.7898037168203837 C 1.066340607287958 1.7898037168203806 1.047311326699114 1.7893831802327818 1.0286324932666024 1.789102822507716 C 0.9577019888249416 1.7882617493325184 0.8913973868468691 1.786229155825791 0.8323820857205065 1.784862411916095 C 0.8244269352717637 1.7846521436222957 0.8161914270979544 1.7844418753284963 0.8085166343742779 1.7843016964659633 C 0.744139491756032 1.7828999078406345 0.6904509874059207 1.779956151727443 0.6528830522470994 1.7787295866802797 L 0.5938677511207369 1.7758208752827218 L 0.6528830522470994 1.7728771191695303 C 0.6904509874059227 1.771650554122367 0.7439993128934999 1.7687067980091757 0.8085166343742779 1.7673400540994797 L 0.8323820857205065 1.7667793386493478 C 0.891327297415603 1.765377550024019 0.9576318993936755 1.7632748670860248 1.0286324932666024 1.762538928057727 C 1.050220038096672 1.7621884809013946 1.072263164229976 1.7619431678919624 1.0945165586570764 1.7617328995981627 C 1.096444018016905 1.75703690770331 1.098616790386166 1.7525161393866229 1.1008946969023252 1.7480304157855695 C 1.1341698213270246 1.6819295531861853 1.2017992449055193 1.6401676049856415 1.275802872627782 1.6400226022039512 C 1.3458099110606043 1.6400867329041826 1.4104658683495241 1.6774910057159542 1.4454192962926216 1.7381478059769984 C 1.4498329212432728 1.7456491657117341 1.4537205457340514 1.7534478341179365 1.4570541418828515 1.7614875865887305 C 1.4827769631576426 1.761732899598163 1.5082544714230033 1.7620132573232288 1.5331362195225953 1.7623987491951945 C 1.600176760528967 1.7631346882234922 1.6630820250906189 1.7650271028676865 1.71960915140702 1.7663938467773825 C 1.7309285945565533 1.7666742045024484 1.742388216568619 1.7669896069431477 1.7531469442680216 1.7671998752369469 C 1.8175591316019017 1.7685315744310097 1.8712125912363788 1.7715454199754674 1.9087805263952002 1.7727719850226304 L 1.9678308722371958 1.775715741135822 Z M 2.3457530856259567 0.2257230133936422 C 2.363203729766609 0.24156157332864953 2.3796483359731417 0.25847435337736 2.394990911090648 0.27636262748366236 C 2.4188660521791245 0.30435768951666753 2.4400562178022236 0.3345354890640723 2.4582816675242625 0.36649763609233194 C 2.4823448615055494 0.4080078148369776 2.5008212690200717 0.45251380411143766 2.5132317816371694 0.4988615270390456 C 2.5285344209911282 0.553848603837005 2.5354460576078193 0.6108312079434957 2.5337329402826096 0.6678821905381195 C 2.5329970012543126 0.6828462841135091 2.533137180116845 0.6978103776888988 2.5316653020602486 0.7132650972831539 C 2.5295158928347443 0.728848314168064 2.527354802037361 0.7446417993467734 2.525182029668101 0.760645552819282 C 2.522974212583208 0.7766609878636687 2.5181730865414553 0.7920105733110242 2.5143882572530663 0.8079208742085109 C 2.510533583926953 0.8239472875747944 2.5055326840710497 0.8396761131168978 2.4994241636776766 0.8549859273039412 C 2.4761005631124178 0.9193984741172476 2.442047167523385 0.9794006993304917 2.3987056509477704 1.0324523672706227 C 2.3535704371771926 1.0871570950343932 2.2990981658406446 1.133430642891622 2.2378153614756067 1.1691267582402234 C 2.17628255523206 1.20425690278199 2.1090450215136083 1.2282787810070892 2.0391819132664524 1.240092307397517 C 2.0216595554498364 1.242194990335511 2.0047680025146195 1.246190087917699 1.9874559129918037 1.246645669220931 L 1.9352743314139225 1.248923575737091 L 1.8854407457834663 1.2464704456427647 C 1.8686543269951494 1.2445780309985701 1.8517627740599305 1.2420197667573443 1.8351515788497796 1.2397769049568175 C 1.7721561469903084 1.2287060484911492 1.7114673693983813 1.2071338712522466 1.6556175006607385 1.1759604777887036 C 1.6057989042930227 1.148283520264298 1.5600321879473564 1.1138729873355009 1.519608959288169 1.0736999975709351 C 1.4861351964417355 1.039353035922114 1.456822845967802 1.0011834623715865 1.4322775279301576 0.9599798953411003 C 1.4219393368183515 0.9413361066242215 1.4125823977442789 0.923673569945073 1.404732381442436 0.9070273300192879 C 1.3977234383157904 0.8899255087902713 1.3907144951891448 0.8746109680585494 1.38570310085359 0.8602075899332913 C 1.3806917065180373 0.8458042118080333 1.3769769666609162 0.8326974881612049 1.3734024056663272 0.8214130897273045 C 1.3698278446717385 0.8101286912934039 1.3685311901933066 0.8000708579066667 1.3666738202647462 0.7921507521735563 L 1.3613470234884948 0.7676194512302946 L 1.3683559666151404 0.7915900367234247 C 1.3707390072781998 0.7993349188783687 1.3730519585099947 0.8091123945400402 1.3769769666609162 0.8201865246801414 L 1.3912752106392736 0.8578946387014978 C 1.3968823651405913 0.8719125249547903 1.404732381442436 0.8867364396676473 1.4123020400192143 0.9032074560152658 C 1.420852950633724 0.9191878463440193 1.4309107840204598 0.93611444399487 1.4419148247292948 0.9538821148209179 C 1.4680403406649691 0.9926920567143898 1.4980918965794097 1.0287092986016884 1.5315942520347352 1.0613642576680384 C 1.571856340184732 1.099029095370882 1.617101425967832 1.130984837479875 1.666060825919443 1.1563354370340937 C 1.7206122773782118 1.1842201347927426 1.7791152485382482 1.203579299794791 1.8395321683039336 1.2137386812413267 L 1.886702355546264 1.2196261934677095 L 1.9365359411767202 1.2215536528275373 L 1.9851780064756446 1.2188552097237786 C 2.00171911225453 1.2182944942736467 2.017944815592715 1.214229307260192 2.034450876655968 1.212091579606565 C 2.1007843439795995 1.2001850473708422 2.1645151417588906 1.1767352451728788 2.222746133753318 1.1428081767996674 C 2.2813881776571177 1.10946729442601 2.3336543963660166 1.0659931910549758 2.3771181061177 1.0144043387195085 C 2.4189911250136094 0.9641577825059522 2.4520610837595407 0.9071888245516566 2.4749279074500494 0.8459093459549325 C 2.4809294741781414 0.8313353650963037 2.4858604870275918 0.8163432120148411 2.4896817327316394 0.8010521099443972 C 2.4931862042949624 0.7859127927908411 2.4984779563555803 0.7710888780779847 2.50096613116554 0.756159829218228 C 2.5034543059754992 0.7412307803584716 2.5060125702167246 0.7264068656456151 2.508465700311051 0.711758174510924 C 2.510393159670879 0.696864170366801 2.510708562111577 0.6815496296350788 2.5119701718743737 0.6667607596378554 C 2.5152067577181523 0.6117527211583224 2.5101504771911713 0.5565707437248409 2.4969710335833515 0.5030668929150329 C 2.47760525164516 0.42206303705328513 2.441348734790487 0.346062881169512 2.39057527692086 0.2800423226251494 C 2.3762446257405734 0.26153505686565864 2.3609559339865367 0.24378988059107978 2.3447718335882284 0.22687948900953978 L 2.327249475771614 0.20935713119292285 Z M 1.5265127682679123 0.7112325037764263 C 1.5589866289784682 0.6936801197688586 1.5971037519025364 0.6897490431822623 1.6324763976316685 0.7003043142786926 C 1.6678490433608026 0.7108595853751228 1.6975787442721242 0.7350362953841701 1.71512342780596 0.7675143170833957 C 1.7326758118135317 0.7999881777939541 1.7366068884001264 0.8381053007180213 1.7260516173036962 0.8734779464471542 C 1.7154963462072659 0.908850592176287 1.6913196361982183 0.9385802930876076 1.658841614498993 0.9561249766214455 C 1.6263677537884353 0.9736773606290133 1.588250630864367 0.9776084372156096 1.5528779851352348 0.9670531661191794 C 1.5175053394061007 0.956497895022749 1.4877756384947811 0.9323211850137016 1.4702309549609436 0.8998431633144761 C 1.452675851069499 0.8673735636017326 1.4487395214255612 0.8292597254872404 1.4592880554779288 0.7938876318611724 C 1.4698365895302943 0.7585155382351043 1.4940057489580965 0.7287832144201558 1.5264777235522802 0.7112325037764263 Z M 1.4807093249352798 0.37743158736990007 C 1.4995483236396898 0.34568088594902324 1.530229097026896 0.32271479319536966 1.5660017066627345 0.31358597548745454 C 1.6017743162985731 0.3044571577795399 1.6397082060603383 0.3099134641811962 1.6714577121269563 0.32875447735534186 C 1.737524925212281 0.368032263783944 1.7592533869575344 0.45342433402178484 1.7199946432789845 0.5195028645470191 C 1.680752453854963 0.5856078944474674 1.595352249811168 0.6073854956256381 1.5292462560873061 0.5681449298459438 C 1.4631708363105682 0.5288926311642357 1.441424751329091 0.44350865247073207 1.4806742802196458 0.37743158736989985 Z M 1.8274767861260992 0.6690737108696493 C 1.834772903726299 0.6636364234536828 1.8439301547606468 0.6613202251008152 1.8529340256238405 0.6626346588034714 C 1.8619378964870361 0.6639490925061275 1.8700508276402625 0.6687864853389331 1.8754880465436268 0.6760826539962956 C 1.8867867465476542 0.6912699484592826 1.8836503441569297 0.7127386228238024 1.8684791034169812 0.7240588696981889 C 1.8611829858167817 0.7294961571141554 1.8520257347824358 0.7318123554670232 1.84302186391924 0.730497921764367 C 1.8340179930560463 0.7291834880617108 1.825905061902818 0.724346095228905 1.8204678429994536 0.7170499265715425 C 1.8091615282165072 0.7018717765163415 1.812282014107083 0.6804047152892182 1.8274417414104691 0.6690737108696495 Z M 1.8179796681894944 0.5830389339900668 C 1.82150575080775 0.5746505043964505 1.828222836147141 0.5680085552154317 1.8366503977808184 0.5645770519605328 C 1.8450779594144977 0.5611455487056338 1.8545241781167097 0.561206183760509 1.8629069936312936 0.5647455924295206 C 1.8712954232249128 0.5682716750477778 1.8779373724059332 0.5749887603871677 1.8813688756608322 0.583416322020847 C 1.8848003789157313 0.5918438836545261 1.8847397438608553 0.6012901023567374 1.8812003351918447 0.6096729178713227 C 1.8738422786079159 0.6271274977982363 1.8537309427595317 0.6353163568566266 1.8362730097500413 0.6279662594318691 C 1.81887299463893 0.6205539411307323 1.810753249182057 0.6004583548841823 1.8181198470520306 0.5830389339900668 Z M 1.936430807029816 0.8994576714425107 C 1.9733483086794028 0.8994576714425107 2.0087537655750416 0.9141230918707002 2.034858381335931 0.9402277076315892 C 2.060962997096819 0.966332323392478 2.0756284175250093 1.001737780288117 2.0756284175250093 1.0386552819377046 C 2.0756284180751234 1.075572781513086 2.0609629981745154 1.110978238627257 2.0348583828026157 1.137082854777135 C 2.0087537674307154 1.1631874709270131 1.973348310753608 1.177852891882785 1.9364308091040203 1.1778528924328988 C 1.8994918699147865 1.1778807860853429 1.8640557969193052 1.1632287990771688 1.8379228745230827 1.1371221673473397 C 1.81178995212686 1.1110155356175102 1.7971023046354473 1.0755942284169464 1.7970930176720898 1.0386552819377048 C 1.7970930071282258 1.0017195574480993 1.8117728585593704 0.9662981585077108 1.8379002173507861 0.9401905184653292 C 1.8640275761422016 0.9140828784229476 1.8994600482940447 0.8994297743782956 1.9363957622813464 0.8994576714424859 Z M 1.929737266343867 0.7147369753397494 C 1.9387815628292702 0.7137754796048124 1.9478371574743816 0.7164483283318104 1.9549097687906185 0.7221668895261657 C 1.961982380106856 0.727885450720521 1.9664919602444815 0.7361807265855135 1.9674453803652243 0.7452258779406605 C 1.9694490745383257 0.7640552581083486 1.9558190212632003 0.780947740705944 1.9369915224799448 0.78296903667765 C 1.9181498392176777 0.784971972247175 1.9012518202666904 0.7713217619525049 1.8992483637429574 0.7524801340767394 C 1.897244669569854 0.7336507539090494 1.9108747228449814 0.7167582713114538 1.929702221628237 0.7147369753397494 Z M 1.9024724775812136 0.5515687793514253 C 1.899938720346059 0.5328390107078297 1.9130455270701725 0.5155932123866264 1.9317698598505957 0.513019592154871 C 1.9505062464422103 0.5105070370320767 1.9677447997131694 0.5236240089300702 1.9703190470471512 0.5423520191398855 C 1.9728326632460587 0.5610764738445694 1.959735484905518 0.578309603240017 1.9410216647777683 0.5809012063364399 C 1.922272593133082 0.5834347794492191 1.9050112197257123 0.570312372962417 1.9024374328655835 0.5515687793514256 Z M 2.036623649025223 0.6279662594318691 C 2.0191657160157326 0.6353163568566275 1.9990543801673484 0.627127497798237 1.9916963235834204 0.6096729178713227 C 1.9881548506416704 0.6012944894317569 1.9880892060146562 0.5918519031424283 1.9915138490285176 0.5834250464365341 C 1.9949384920423787 0.5749981897306399 2.0015724995129327 0.5682783169692625 2.0099546204283323 0.5647455924295204 C 2.0183374359429185 0.561206183760508 2.0277836546451296 0.5611455487056326 2.036211216278809 0.5645770519605318 C 2.044638777912488 0.5680085552154307 2.0513558632518794 0.5746505043964495 2.054881945870136 0.5830389339900663 C 2.058410363997165 0.5914177489076166 2.0584652083684865 0.6008551599078953 2.0550344102057108 0.6092744174682736 C 2.0516036120429337 0.6176936750286515 2.0449682987803577 0.6244048859626586 2.0365886043095918 0.6279312147162364 Z M 2.0524638604914434 0.7170499265715425 C 2.0470266415880802 0.724346095228905 2.0389137104348527 0.7291834880617108 2.029909839571657 0.730497921764367 C 2.0209059687084636 0.7318123554670232 2.0117487176741156 0.7294961571141554 2.004452600073917 0.7240588696981889 C 1.997158723677161 0.7186280262385284 1.992322104459262 0.7105211477046283 1.9910075469660846 0.701523001663825 C 1.9896929894729052 0.692524855623022 1.9920082658034537 0.6833731420930009 1.9974436569472713 0.6760826539962956 C 2.002874500406931 0.6687887775995397 2.0109813789408317 0.6639521583816405 2.0199795249816352 0.6626376008884626 C 2.028977671022438 0.6613230433952845 2.0381293845524597 0.6636383197258321 2.045419872649165 0.6690737108696493 C 2.0605911133891124 0.680393957744035 2.063727515779839 0.701862632108555 2.0524288157758126 0.7170499265715428 Z M 2.157598007391137 0.7675143170833955 C 2.1751495385356012 0.7350338813921903 2.2048855613637377 0.7108565504611258 2.2402638986349563 0.7003015421650869 C 2.275642235906176 0.6897465338690476 2.3137645871149464 0.6936785464454266 2.3462437116448207 0.7112325037764263 C 2.3787217333440447 0.728777187310264 2.4028984433530924 0.7585068882215843 2.4134537144495227 0.7938795339507172 C 2.424008985545953 0.8292521796798501 2.4200779089593563 0.8673693026039172 2.4025255249517894 0.8998431633144757 C 2.3849739938073244 0.9323235990056811 2.355237970979188 0.9565009299367455 2.3198596337079693 0.9670559382327846 C 2.28448129643675 0.9776109465288237 2.246358945227979 0.9736789339524448 2.213879820698105 0.956124976621445 C 2.1462858635513777 0.9195525558725147 2.121135326774155 0.8351107661438656 2.157703141538039 0.7675143170833957 Z M 2.2012637230701437 0.32875447735534186 C 2.2330132291367595 0.3099134641811957 2.270947118898525 0.3044571577795394 2.3067197285343632 0.31358597548745404 C 2.342492338170204 0.32271479319536917 2.373173111557409 0.34568088594902274 2.39201211026182 0.37743158736990035 C 2.4108544465538646 0.4091714775266055 2.4163151907806237 0.44709689050893975 2.4071928466393056 0.48286331472872346 C 2.3980705024979856 0.5186297389485066 2.375112459678205 0.5493068468186398 2.3433700449628967 0.5681449298459438 C 2.2772640512390336 0.6073854956256388 2.1918638471952407 0.585607894447468 2.152621657771219 0.5195028645470191 C 2.1134199776815974 0.4533664260267881 2.1352427623726538 0.36797360282519387 2.201368857217045 0.32875447735534186 Z M 2.075488238662477 0.2571581233166506 C 2.075488239212591 0.2940756228920322 2.0608228193119844 0.3294810800062028 2.0347182039400846 0.35558569615608127 C 2.008613588568184 0.38169031230595873 1.973208131891076 0.3963557332617311 1.93629063024149 0.3963557338118444 C 1.8594219252058781 0.3963363884723159 1.7971123630116181 0.33402682627805497 1.7970930176720898 0.2571581233166511 C 1.797093018222204 0.22024061959285812 1.8117584391779762 0.18483516291575086 1.837863055327854 0.1587305475438508 C 1.8639676714777322 0.13262593217195123 1.8993731285919013 0.11796051227134373 1.93629063024149 0.11796051282145754 C 1.9732263421545788 0.11793261574855378 2.0086588143098787 0.13258571978484673 2.0347861731074532 0.15869335982106486 C 2.0609135319050287 0.184800999857283 2.0755933833445264 0.2202223987942078 2.075593372809377 0.2571581233166511 Z M 1.3620479178011577 0.5129845474392377 C 1.3637390831672005 0.4999745820503319 1.366314998121082 0.4870950072809205 1.3697577552404703 0.47443536024268357 C 1.3715450357377628 0.4669357910971718 1.3734724950975914 0.45894559593279516 1.3754700438886862 0.45053486418081967 C 1.3774675926797808 0.4421241324288439 1.3811122431056357 0.4338535795394016 1.3840910439344598 0.42484708762166135 C 1.3870698447632839 0.415840595703921 1.3902939586015424 0.4065187013454813 1.3941488773211976 0.39705662812450887 L 1.4074658692618238 0.36835500602089244 C 1.4173390842107416 0.3478093475609331 1.4285057279996114 0.32791071607133415 1.4408985279759294 0.30877898944439963 C 1.4544367100601214 0.2883778532411688 1.4692676173469972 0.26886473370902736 1.4853001826832342 0.2503594484838033 C 1.5019022934072863 0.23123662411904333 1.5196066301958653 0.21309933263041242 1.5383228374363085 0.19604013925229616 C 1.557598337833459 0.17962638633636968 1.5778187228318012 0.1643557830824136 1.598880106050533 0.15030678535092973 C 1.6192530991257197 0.13672078812217184 1.6404752157207119 0.12445339805512697 1.66241617549358 0.11357992336730159 C 1.6830654974132806 0.10377773507831113 1.7043092472612198 0.09528023513913654 1.7260223343678929 0.08813745981757634 L 1.75612574509684 0.07843007358717159 L 1.7850376354942554 0.07212202477318948 C 1.8017593150580635 0.06819546567933783 1.818760193840303 0.06557093304858523 1.8358875178780747 0.06427200847134626 L 1.8571596602674458 0.06199410195518565 L 1.8753128229654585 0.061573565367587076 C 1.8972157702362284 0.06125816292688765 1.9095865548547595 0.061573565367587076 1.9095865548547595 0.061573565367587076 C 1.9095865548547595 0.061573565367587076 1.8972858596674946 0.06399165074627988 1.8759085831312234 0.06749612230960267 L 1.8583862253146075 0.07033474427589453 L 1.8379201113848016 0.07545127275834652 C 1.821583272093872 0.0791619765861991 1.805442492040531 0.08368841273159351 1.7895584038109396 0.08901357770840754 L 1.7623637044795544 0.09780980133234805 L 1.7340826189635359 0.1093395127756808 C 1.7143524440620288 0.11634845590232737 1.695358208188815 0.1278781673456601 1.6747168706808426 0.13737528528226559 C 1.6552670535043983 0.1492554438819313 1.63455562656516 0.16036461873766547 1.6154212118294158 0.1745927732847569 C 1.595601384607322 0.18825187314568917 1.576576288684118 0.20302966905651668 1.558438504209782 0.21885424912952783 C 1.5404133121969654 0.2348123692120569 1.5233405280085064 0.2518149431845237 1.5073082641008961 0.26977422094461434 C 1.4908722924689117 0.2870863104674295 1.4769244956468868 0.3059754121937408 1.4629416541092275 0.3239183065979553 C 1.4563182028545445 0.33320515624076147 1.4506059142063308 0.3428074083242671 1.4443329101079803 0.3519540791045401 C 1.4381114097797592 0.3606922053545817 1.4324800585931654 0.36983583378853224 1.4274764018883972 0.37932400201409344 L 1.4125823977442729 0.4059930306109826 C 1.4079564952806864 0.4147191648036573 1.4042417554235633 0.423515388427598 1.400281702557008 0.43178594131704057 C 1.3929462657676563 0.4468041683889982 1.386407203365841 0.46219845483047894 1.3806917065180333 0.47790478709037326 C 1.3755872848458783 0.4898858299315274 1.3713134148928756 0.5022039427823735 1.3679003853119018 0.5147718279365319 C 1.3617325153604534 0.5357986573164706 1.357772462493898 0.5475035923379699 1.357772462493898 0.5475035923379699 C 1.357772462493898 0.5475035923379699 1.3590340722567016 0.5345020028380418 1.362153051948058 0.5129495027236046 Z M 0.9127746633831344 0.32878952207097495 C 0.9445241694497524 0.30994850889682923 0.9824580592115174 0.30449220249517295 1.0182306688473541 0.3136210202030876 C 1.0540032784831945 0.3227498379110027 1.0846840518703988 0.3457159306646558 1.1035230505748108 0.37746663208553316 C 1.1223623917567291 0.4092107689741562 1.127817763620786 0.44713933883057605 1.1186887239568801 0.4829062458507149 C 1.1095596842929765 0.5186731528708535 1.0865942599764555 0.5493476826877993 1.0548459405602524 0.5681799745615768 C 1.0231060504035472 0.5870223108536196 0.9851806374212134 0.5924830550803796 0.9494142132014268 0.5833607109390602 C 0.9136477889816441 0.574238366797741 0.8829706811115103 0.5512803239779592 0.864132598084208 0.5195379092626516 C 0.84528644815309 0.4877768334109515 0.8398346256258312 0.44982818472280234 0.8489773183832138 0.41404614347823687 C 0.8581200111405982 0.37826410223367146 0.8811077079851105 0.3475820537376851 0.9128797975300365 0.32875447735534186 Z M 1.114001420549149 0.9000183868926419 C 1.0964567370153095 0.9324964085918671 1.066727036103988 0.9566731186009145 1.0313543903748539 0.9672283896973448 C 0.9959817446457236 0.9777836607937751 0.9578646217216553 0.9738525842071788 0.9253907610110956 0.956300200199611 C 0.8929127393118743 0.9387555166657734 0.8687360293028247 0.9090258157544531 0.8581807582063964 0.8736531700253202 C 0.8476254871099661 0.8382805242961873 0.8515565636965609 0.8001634013721202 0.8691089477041287 0.7676895406615617 C 0.8866536312379664 0.7352115189623362 0.9163833321492879 0.7110348089532889 0.951755977878422 0.7004795378568586 C 0.9871286236075542 0.6899242667604283 1.0252457465316205 0.6938553433470245 1.0577196072421802 0.7114077273545923 C 1.1252879626033234 0.7479024241997436 1.1505226584209203 0.8322324176187766 1.1141065546960491 0.8998431633144764 Z M 0.7871043131223687 0.2571581233166511 C 0.7870849677828127 0.3340268262781075 0.724775405588529 0.3963363884723461 0.6479067026271251 0.3963557338118452 C 0.5710299851377941 0.3963557338118444 0.5087090921319826 0.3340348408060327 0.5087090921319826 0.2571581233166511 C 0.5087090921319826 0.18028140582726956 0.5710299851377941 0.11796051282145804 0.6479067026271766 0.11796051282145754 C 0.7247834201165592 0.11796051282145754 0.7871043131223687 0.18028140582726906 0.7871043131223687 0.2571581233166516 Z M 0.538987726439094 0.6690737108696495 C 0.5462782145357993 0.6636383197258321 0.5554299280658199 0.6613230433952842 0.5644280741066225 0.6626376008884624 C 0.5734262201474273 0.6639521583816402 0.581533098681327 0.6687887775995395 0.5869639421409875 0.6760826539962959 C 0.5923993332848071 0.6833731420930012 0.5947146096153545 0.6925248556230224 0.5934000521221752 0.7015230016638253 C 0.5920854946289978 0.7105211477046285 0.5872488754110998 0.7186280262385288 0.5799549990143439 0.7240588696981891 C 0.572667792997834 0.7295034406053923 0.5635135233869001 0.7318243546451922 0.5545125470389537 0.7305093836666761 C 0.5455115706910073 0.7291944126881594 0.5374038557309452 0.7243516601427351 0.5319787833124484 0.7170499265715428 C 0.5265342124052472 0.7097627205550332 0.5242132983654467 0.7006084509440993 0.5255282693439624 0.6916074745961539 C 0.5268432403224781 0.6826064982482085 0.5316859928679039 0.6744987832881469 0.538987726439096 0.6690737108696495 Z M 0.529490608502487 0.5830389339900671 C 0.5330166911207426 0.5746505043964505 0.5397337764601337 0.5680085552154317 0.548161338093813 0.5645770519605328 C 0.5565888997274923 0.5611455487056338 0.5660351184297043 0.561206183760509 0.5744179339442864 0.5647455924295206 C 0.5918725138712029 0.5721036490134477 0.6000613729295949 0.5922149848618319 0.5927112755048353 0.6096729178713227 C 0.5853384716396283 0.6271320370699615 0.5652165609341948 0.635318816016365 0.5477489053474 0.6279662594318695 C 0.5393604757537828 0.6244401768136115 0.5327185265727663 0.6177230914742212 0.5292870233178674 0.6092955298405419 C 0.5258555200629684 0.6008679682068628 0.5259161551178424 0.5914217495046519 0.529455563786855 0.5830389339900671 Z M 0.6479417473428087 0.8994576714425111 C 0.7248184648321913 0.8994576714425117 0.7871393578380028 0.9617785644483231 0.7871393578380028 1.0386552819377053 C 0.7871200124984448 1.1155239848991614 0.724810450304161 1.1778335470933998 0.6479417473427572 1.177852892432899 C 0.5710650298534262 1.1778528924328988 0.5087441368476147 1.1155319994270871 0.5087441368476147 1.0386552819377053 C 0.5087441345569175 0.9617922479186917 0.5710436715701961 0.8994770225141452 0.6479067028902338 0.8994576714424445 Z M 0.6412131619412276 0.7147369753397499 C 0.6600548452034948 0.7127340397702253 0.6769528641544841 0.7263842500648954 0.6789563206782171 0.7452258779406608 C 0.6809392021242232 0.7640616413547284 0.6672990418940337 0.780947219018995 0.6484674180773075 0.7829690366776506 C 0.6296316546632406 0.7849519181236562 0.6127460769989747 0.7713117578934688 0.6107242593403159 0.75248013407674 C 0.6087205651672165 0.7336507539090509 0.6223506184423421 0.7167582713114552 0.6411781172255955 0.7147369753397499 Z M 0.6139483731785743 0.5515687793514259 C 0.6114347569796659 0.5328443246467417 0.6245319353202056 0.5156111952512938 0.6432457554479544 0.5130195921548713 C 0.6619821420395688 0.5105070370320769 0.679220695310528 0.5236240089300704 0.6817949426445109 0.5423520191398861 C 0.6843286998796677 0.5610817877834814 0.6712218931555523 0.5783275861046846 0.652497560375129 0.5809012063364402 C 0.633753805380904 0.5834146397321153 0.6165050990955335 0.5703018630192597 0.6139133284629402 0.5515687793514256 Z M 0.7480995446225815 0.6279662594318697 C 0.7306416116130913 0.635316356856627 0.710530275764709 0.6271274977982367 0.7031722191807821 0.6096729178713229 C 0.6958221217560225 0.5922149848618322 0.7040109808144126 0.5721036490134477 0.7214655607413272 0.5647455924295206 C 0.7298483762559091 0.561206183760509 0.7392945949581212 0.5611455487056338 0.7477221565918005 0.5645770519605328 C 0.7561497182254778 0.5680085552154317 0.7628668035648709 0.5746505043964505 0.7663928861831285 0.5830389339900671 C 0.7737155172721482 0.6004969020740039 0.7655133167814986 0.6205868042317884 0.7480644999069515 0.6279312147162361 Z M 0.7639397560888012 0.7170499265715431 C 0.7585025371854368 0.7243460952289056 0.7503896060322105 0.7291834880617114 0.7413857351690148 0.7304979217643676 C 0.7323818643058211 0.7318123554670236 0.7232246132714752 0.7294961571141559 0.7159284956712756 0.7240588696981893 C 0.7007572549313271 0.712738622823803 0.6976208525406006 0.6912699484592831 0.70891955254463 0.6760826539962961 C 0.7143567714479923 0.6687864853389336 0.7224697026012207 0.6639490925061281 0.7314735734644143 0.6626346588034719 C 0.74047744432761 0.6613202251008158 0.7496346953619559 0.6636364234536832 0.7569308129621556 0.6690737108696498 C 0.7642271020032645 0.674504026874852 0.7690629243292016 0.6826142724053224 0.7703712784628192 0.6916149598873338 C 0.7716796325964348 0.700615647369345 0.769352989259361 0.7097670402094864 0.7639047113731711 0.7170499265715431 Z M 0.07355885811414847 0.5129495027236052 C 0.07523307524472175 0.49993674998652804 0.07780922185203654 0.4870560169499581 0.08126869555346099 0.47440031552705125 C 0.08305597605075543 0.4669007463815395 0.08477316711678377 0.45891055121716257 0.0869809842016768 0.45049981946518713 C 0.08918880128657179 0.44208908771321165 0.09262318341862848 0.4338185348237691 0.09560198424745256 0.4248120429060288 C 0.09858078507627663 0.4158055509882885 0.10180489891453502 0.40648365662984876 0.1056598176341883 0.3970215834088766 C 0.10951473635384158 0.3875595101879044 0.1143859518268642 0.37816752639819834 0.11897680957481649 0.3683199613052604 C 0.1288511636958749 0.3477817024060689 0.14000565704220644 0.3278838653769319 0.1523744235732841 0.30874394472876854 C 0.16591340996392864 0.288334334124851 0.18075654166258548 0.2688205324358442 0.19681112299622275 0.2503244037681713 C 0.21339203117834774 0.23119349426432112 0.23108519648151876 0.2130556594627891 0.24979873303366515 0.19600509453666262 C 0.2690742334308157 0.17959134162073762 0.28929461842915594 0.16432073836678107 0.31035600164788785 0.15027174063529716 C 0.33073825854172273 0.13670065323025074 0.3519594078711326 0.12443382228859613 0.3738920710909366 0.11354487865166953 C 0.3945438868521492 0.10374840027952091 0.4157872748470291 0.09525104508156865 0.4374982299652514 0.08810241510194379 L 0.46763668540983055 0.07839502887153903 L 0.496513531091614 0.07208698005755741 C 0.5132475062553189 0.06816276874912319 0.5302598483382903 0.06553827520464238 0.5473984581910655 0.06423696375571321 L 0.5686355558648025 0.0619590572395531 L 0.5867887185628152 0.06153852065195452 C 0.6086916658335851 0.06122311821125559 0.6210974951677481 0.06153852065195452 0.6210974951677481 0.06153852065195452 C 0.6210974951677481 0.06153852065195452 0.6087617552648532 0.06395660603064782 0.5873844787285801 0.0674610775939706 L 0.5698621209119662 0.07029969956026248 L 0.5493960069821582 0.07541622804271397 C 0.533046398674877 0.07912202568175403 0.51689370696082 0.08364852220118918 0.5009992546926642 0.08897853299277499 L 0.47383960007691306 0.0977747566167155 L 0.44552346984526237 0.10930446806004873 C 0.4257932949437554 0.1163134111866948 0.4069742826487077 0.12784312263002756 0.38615772156256933 0.13734024056663352 C 0.3667429491017608 0.14922039916629873 0.34603152216252053 0.1603295740220334 0.3268620627111423 0.17455772856912483 C 0.30704860627505676 0.18822552911864135 0.28802399371377546 0.20300294957675866 0.2698793550915085 0.21881920441389727 C 0.2518739408593096 0.23478663437265632 0.23481334828007444 0.25178872011863007 0.21878415969825876 0.2697391762289808 C 0.2023131433506383 0.28705126575179696 0.1884003912442453 0.3059403674781087 0.17438250499095415 0.32388326188232275 C 0.16779409845190715 0.33317011152512893 0.16208180980368936 0.3427723636086345 0.15580880570534078 0.3519190343889075 C 0.14957479895750808 0.3606488641789018 0.14394291727550185 0.36979335397858204 0.13895229748575777 0.3792889572984609 L 0.12402324862600138 0.40595798589535004 C 0.1194323908780491 0.4146841200880247 0.11571765102092603 0.4234803437119657 0.11172255343873659 0.43175089660140825 C 0.1044168123699412 0.4467826539897856 0.09787840949504183 0.4621753877704063 0.09213255739976182 0.4778697423747392 C 0.0870380809432616 0.4898509258671583 0.08277587866994587 0.5021691588109167 0.07937628090926442 0.5147367832208998 C 0.07317336624218196 0.5357636126008383 0.06921331337562656 0.5474685476223372 0.06921331337562656 0.5474685476223372 C 0.06921331337562656 0.5474685476223372 0.07058005728532638 0.5345020028380418 0.0736639922610506 0.5129495027236046 Z M 0.4314705388763392 0.5195028645470193 C 0.39222834945231955 0.585607894447468 0.3068281454085266 0.6073854956256386 0.2407221516846627 0.5681449298459442 C 0.2089797369693566 0.5493068468186398 0.18602169414957587 0.5186297389485068 0.17689935000825666 0.48286331472872346 C 0.16777700586693745 0.44709689050894 0.1732377500936968 0.4091714775266055 0.19208008638574026 0.37743158736990035 C 0.21091908509015034 0.34568088594902374 0.24159985847735446 0.32271479319537016 0.27737246811319505 0.31358597548745504 C 0.31314507774903566 0.3044571577795404 0.3510789675107987 0.3099134641811967 0.38282847357741473 0.32875447735534286 C 0.4145909860485361 0.34758189154249675 0.43757184350977674 0.3782575085199215 0.4467140526123035 0.4140310844689166 C 0.45585626171483024 0.44980466041791195 0.4504106987445008 0.4877448650896814 0.4315756730232393 0.5195028645470189 Z M 0.3702123759494515 0.956124976621446 C 0.3377332514195794 0.9736789339524452 0.2996109002108088 0.9776109465288243 0.26423256293959013 0.967055938232785 C 0.22885422566836952 0.9565009299367461 0.19911820284023315 0.9323235990056818 0.18156667169576993 0.8998431633144767 C 0.16401428768820012 0.8673693026039182 0.1600832111016053 0.8292521796798511 0.17063848219803562 0.7938795339507182 C 0.1811937532944659 0.7585068882215853 0.2053704633035135 0.728777187310265 0.23784848500273878 0.7112325037764269 C 0.2703276095326129 0.6936785464454276 0.3084499607413835 0.6897465338690486 0.3438282980126021 0.7003015421650878 C 0.37920663528382276 0.7108565504611268 0.4089426581119571 0.7350338813921913 0.42649418925642235 0.7675143170833962 C 0.46306200402030545 0.8351107661438664 0.4379114672430809 0.9195525558725155 0.3703175100963536 0.9561249766214455 Z M 0.11610314289289254 0.9068871511567562 C 0.10909419976624697 0.8897853299277394 0.1020852566396014 0.8744707891960175 0.09703881758841651 0.8600674110707596 L 0.08477316711678377 0.8212729108647726 C 0.08154905327852736 0.8098833782839723 0.07990195164376512 0.7999306790441347 0.07800953699957251 0.7920105733110246 L 0.07268274022332125 0.7674792723677627 L 0.07969168334996682 0.7914498578608926 C 0.08210976872866012 0.7991947400158367 0.08438767524482121 0.8089722156775083 0.0883126833957406 0.8200463458176095 L 0.10264597208973217 0.8577544598389661 C 0.10825312659104983 0.8717723460922586 0.11610314289289254 0.8865962608051153 0.12367280146967088 0.903067277152734 C 0.1321886673685465 0.9190476674814874 0.14224650075528225 0.935974265132338 0.15325054146411926 0.953741935958386 C 0.17938696085608408 0.9925436919174622 0.20943761997723848 1.028559858984513 0.24292996876955572 1.0612240788055054 C 0.2831979374520272 1.0988816958591123 0.3284419814571672 1.130836702180178 0.3773965426542653 1.1561952581715624 C 0.43195226070012754 1.184069751108201 0.490453628042127 1.2034283853922803 0.5508678850387562 1.2135985023787943 L 0.5980731169967206 1.2194860146051776 L 0.6479067026271766 1.2214134739650053 L 0.6965487679261011 1.2187150308612464 C 0.7130898737049837 1.218154315411115 0.7293155770431718 1.2140891283976603 0.7458216381064223 1.211951400744033 C 0.8121441436372131 1.2000451391465448 0.875863474368278 1.176595191854044 0.9340818504881414 1.1426679979371352 C 0.992723894391941 1.1093271155634776 1.044990113100841 1.0658530121924432 1.0884538228525242 1.014264159856976 C 1.1303268417484318 0.9640176036434203 1.163396800494364 0.9070486456891247 1.1862636241848719 0.8457691670924004 C 1.192265190912965 0.831195186233772 1.1971962037624142 0.8162030331523094 1.2010174494664638 0.8009119310818655 C 1.2045219210297846 0.7857726139283094 1.2098136730904019 0.7709486992154526 1.2123018479003613 0.7560196503556963 C 1.2147900227103228 0.7410906014959396 1.2173482869515482 0.7262666867830831 1.2198364617615056 0.7116179956483923 C 1.2217288764057002 0.696723991504269 1.2220793235620326 0.6814094507725469 1.2233409333248304 0.6666205807753235 C 1.2266060667341332 0.6116140283716884 1.2215613684626883 0.5564295187091157 1.2083768397494399 0.5029267140525007 C 1.1889811296394635 0.42193344461444243 1.1527274815938053 0.34593930226841185 1.1019810830869488 0.2799021437626177 C 1.0876300874126783 0.26140135857646996 1.0723300787583379 0.24365662376864552 1.056142595038684 0.22673931014700657 L 1.038620237222068 0.20921695233039114 L 1.0573341153702138 0.22568796867800964 C 1.0748066421404878 0.24151521889568417 1.0912635959191523 0.25842866001244896 1.106606985550539 0.27632758276802877 C 1.1304358845137883 0.30434716055711786 1.1515900095398715 0.3345354931650544 1.1697926078372551 0.36649763609233194 C 1.193867600969628 0.4080061888404992 1.2123558014116274 0.4525122009943722 1.2247777666657964 0.4988615270390459 C 1.2400630491898468 0.5538520498086738 1.246974365285917 0.6108320114007209 1.2452789253112344 0.6678821905381199 C 1.2445429862829354 0.6828462841135093 1.2446831651454695 0.6978103776888991 1.2431762423732395 0.7132650972831541 C 1.2410501962914893 0.7288483141680643 1.238889105494107 0.7446417993467737 1.2366929699810927 0.7606455528192824 C 1.2345201976118316 0.776660987863669 1.2296840268544451 0.7920105733110244 1.2258991975660578 0.8079208742085111 C 1.2220404575453283 0.8239420686159384 1.2170516214238005 0.8396697843699495 1.2109701487062996 0.8549859273039402 C 1.1876475330961376 0.9194062504805746 1.1535811347564704 0.9794105082865129 1.110216591260762 1.0324523672706227 C 1.0650893163060056 1.0871649200837277 1.010615544613117 1.1334397424758578 0.9493263017885962 1.1691267582402243 C 0.8878033437038061 1.2042510555762584 0.8205783615940855 1.2282726876165238 0.750727898295079 1.2400923073975174 C 0.7333807640566273 1.2421949903355114 0.716313987543244 1.2461900879176995 0.6989668533047964 1.2466456692209313 L 0.6467852717269151 1.2489235757370913 L 0.5969867308120951 1.246470445642765 C 0.5801652673081421 1.2445780309985706 0.5633087590885592 1.242019766757345 0.5466975638784084 1.2397769049568181 C 0.48369293715419065 1.2286988887589911 0.4229938002386682 1.2071272399839783 0.36712844097373126 1.1759604777887043 C 0.3173205278355352 1.1482670703953433 0.2715559642986085 1.1138581560947096 0.23111989960116155 1.0736999975709356 C 0.1976566988766125 1.0393438905147725 0.16834534759084488 1.0011756180740354 0.1437884682431483 0.9599798953411007 C 0.13341523241570818 0.9411959277616891 0.12402324862600336 0.9235333910825405 0.11620827703979268 0.9068871511567558 Z" fill="#fffcf7" transform="matrix(1,0,0,1,0,0)" fill-rule="nonzero"></path></g><g clip-path="url(#SvgjsClipPath122775520d72de-7edb-4f00-847f-dcd179da6ee3)"><path d=" M 1.4328732880959205 1.7614525418730969 C 1.4293684431056277 1.7536670853831153 1.425279919532171 1.7461577913699746 1.4206426823399239 1.738988879152196 C 1.3882609789435962 1.6905553109283182 1.3338539492485302 1.6614654929251342 1.2755926043339798 1.6614349234558552 C 1.2140511707027963 1.6616250020671366 1.1571782931447014 1.694277947228741 1.1259867132957155 1.7473295214729048 C 1.1232532254763237 1.7519904686521244 1.120589827088198 1.7566864605469776 1.118276875856403 1.7615576760199965 C 1.1139428885894964 1.7707277814563207 1.1104248294200372 1.780261721805556 1.1077634611664307 1.7900490298298137 C 1.103354172997997 1.8050107379257507 1.1009963311014566 1.8205017591860233 1.100754518039785 1.8360977861718792 L 1.100754518039785 1.8363080544656785 C 1.1009315641316482 1.8573294853908386 1.1049211845739673 1.8781443801390068 1.112529542492555 1.8977414409707352 C 1.1151278378607181 1.9043189389988013 1.118123853570316 1.9107322851271604 1.1215009896946593 1.9169459451377433 C 1.1250105607795273 1.9238888135740229 1.128967256072515 1.9305964656535528 1.1333461035786956 1.9370265671955853 C 1.1346427580571212 1.9388488924085128 1.1362197702606174 1.9405310387589079 1.1375865141703132 1.9421430956780363 C 1.138147229620446 1.9428790347063343 1.138778034501843 1.9435448843033658 1.1393737946676077 1.9442808233316637 C 1.155699775901715 1.964922167307767 1.1764868278625145 1.9815997329155088 1.2001763762912627 1.9930630674931211 C 1.2226912341768945 2.004087192928899 1.247339987982761 2.010066997345654 1.2724035352113554 2.0105854253097366 C 1.2734198319647168 2.0105854253097366 1.274401084002448 2.010900827750436 1.2754173807558116 2.010900827750436 C 1.276433677509175 2.010900827750436 1.277975644997037 2.0105503805941036 1.2792722994754668 2.0105153358784706 C 1.304252004948501 2.009955848910011 1.3288121171715794 2.00397724320819 1.351254145386123 1.9929929780618547 C 1.374841986977393 1.9814779216942187 1.3955292494511646 1.9647915542211638 1.4117763692847116 1.944175689184764 C 1.4122669953035782 1.943579929018999 1.4127926660380752 1.9430192135688673 1.4132482473413057 1.9423884086874692 C 1.4193207356061366 1.9344647755237552 1.4247023061031985 1.926034820867137 1.4293337718169596 1.9171912581471762 C 1.4427328672592756 1.892423009037426 1.449856222598563 1.8647478109287015 1.450080243471832 1.836588412190744 L 1.450080243471832 1.8363781438969449 C 1.449833252403055 1.8208170354255573 1.4474754191272023 1.8053614383023397 1.4430713003451865 1.7904345217017767 C 1.4405485679009995 1.7804874051063333 1.437135455001508 1.770787596282004 1.4328732880959225 1.7614525418730966 Z M 1.2755926043339798 1.87927287583202 C 1.251843208002206 1.879253880329256 1.2325682144743446 1.8600571767832317 1.2324525593894708 1.836308054465679 L 1.2324525593894708 1.8360977861718792 C 1.2324718840317224 1.8122608516975398 1.251790714575262 1.7929420211539968 1.275627649049608 1.7929226965117386 C 1.299478268187228 1.7929226886676302 1.3188184398575553 1.8122471748783702 1.3188377834253848 1.8360977861718792 L 1.3188377834253868 1.836308054465679 C 1.3188006660709681 1.847740230049656 1.314223623699229 1.8586894219081322 1.306113566280152 1.866746901969549 C 1.2980035088610729 1.8748043820309659 1.2870247795247725 1.8793101140898756 1.2755926043339798 1.87927287583202 Z" fill="#fffcf7" transform="matrix(1,0,0,1,0,0)" fill-rule="nonzero"></path></g></g><g transform="matrix(-0.9322143195460226,-0.36190670404587133,0.36190670404587133,-0.9322143195460226,-2.6160992084995325,4.005838559831059)"><g clip-path="url(#SvgjsClipPath122780)"><path d=" M -0.9328997527392626 2.4190407146632773 C -0.8376441332882282 2.4190407146632773 -0.7587414510440903 2.3403068369322426 -0.7587414510440903 2.2448824129681046 C -0.7587414510440903 2.149627177163691 -0.8376441332882282 2.0707246867428637 -0.9330685572523661 2.0707246867428637 C -1.028324368526711 2.0707246867428637 -1.107058054434435 2.149627177163691 -1.107058054434435 2.2448824129681046 C -1.107058054434435 2.3403068369322426 -1.0281557558369179 2.4190407146632773 -0.9328997527392626 2.4190407146632773 Z M -0.9328997527392626 2.3848175178646565 C -1.0104533416417454 2.3848175178646565 -1.0726647103595386 2.3224365773405187 -1.0726647103595386 2.2448824129681046 C -1.0726647103595386 2.1673301668287945 -1.0106219543315387 2.10511803081776 -0.9330685572523661 2.10511803081776 C -0.8555143928799525 2.10511803081776 -0.7931353705889179 2.1673301668287945 -0.7929665660758145 2.2448824129681046 C -0.7929665660758145 2.3224365773405187 -0.8553455883668489 2.3848175178646565 -0.9328997527392626 2.3848175178646565 Z M -0.9327309482261592 2.310971298081208 C -0.8963152109902972 2.310971298081208 -0.8666420631130558 2.2813000684370706 -0.8666420631130558 2.2445467221750013 C -0.8666420631130558 2.208129066706036 -0.8963152109902972 2.1784559188287944 -0.9327309482261592 2.1784559188287944 C -0.9694842944882283 2.1784559188287944 -0.9991574423654697 2.208129066706036 -0.9991574423654697 2.2445467221750013 C -0.9991574423654697 2.2813000684370706 -0.9694842944882283 2.310971298081208 -0.9327309482261592 2.310971298081208 Z" fill="#fffcf7" transform="matrix(1,0,0,1,0,0)" fill-rule="nonzero"></path></g></g><g transform="matrix(0.9322143195460226,-0.36190670404587133,-0.36190670404587133,-0.9322143195460226,1.0657642239880283,5.6900987791276405)"><g clip-path="url(#SvgjsClipPath122781)"><path d=" M 3.7209521943722317 2.4190407146632773 C 3.8162078138232665 2.4190407146632773 3.8951104960674043 2.3403068369322426 3.8951104960674043 2.2448824129681046 C 3.8951104960674043 2.149627177163691 3.8162078138232665 2.0707246867428637 3.7207833898591285 2.0707246867428637 C 3.6255275785847836 2.0707246867428637 3.5467938926770595 2.149627177163691 3.5467938926770595 2.2448824129681046 C 3.5467938926770595 2.3403068369322426 3.6256961912745767 2.4190407146632773 3.7209521943722317 2.4190407146632773 Z M 3.7209521943722317 2.3848175178646565 C 3.643398605469749 2.3848175178646565 3.581187236751956 2.3224365773405187 3.581187236751956 2.2448824129681046 C 3.581187236751956 2.1673301668287945 3.643229992779956 2.10511803081776 3.7207833898591285 2.10511803081776 C 3.798337554231542 2.10511803081776 3.860716576522577 2.1673301668287945 3.86088538103568 2.2448824129681046 C 3.86088538103568 2.3224365773405187 3.7985063587446457 2.3848175178646565 3.7209521943722317 2.3848175178646565 Z M 3.7211209988853353 2.310971298081208 C 3.7575367361211973 2.310971298081208 3.7872098839984387 2.2813000684370706 3.7872098839984387 2.2445467221750013 C 3.7872098839984387 2.208129066706036 3.7575367361211973 2.1784559188287944 3.7211209988853353 2.1784559188287944 C 3.6843676526232665 2.1784559188287944 3.654694504746025 2.208129066706036 3.654694504746025 2.2445467221750013 C 3.654694504746025 2.2813000684370706 3.6843676526232665 2.310971298081208 3.7211209988853353 2.310971298081208 Z" fill="#fffcf7" transform="matrix(1,0,0,1,0,0)" fill-rule="nonzero"></path></g></g></g><defs><clipPath id="SvgjsClipPath122779"><path d=" M 0 0 h 2.788052441632969 v 2.7332775510982286 h -2.788052441632969 Z"></path></clipPath><clipPath id="SvgjsClipPath122775520d72de-7edb-4f00-847f-dcd179da6ee3"><path d=" M 0 2.476288011650646e-16 L 2.788052441632969 2.476288011650646e-16 L 2.788052441632969 2.733277551098228 L 0 2.733277551098228 Z"></path></clipPath><clipPath id="SvgjsClipPath122780"><path d=" M -1.2014523872220213 1.9697751759708635 h 0.5371052689655172 v 0.5562876 h -0.5371052689655172 Z"></path></clipPath><clipPath id="SvgjsClipPath122781"><path d=" M 3.4523995598894732 1.9697751759708635 h 0.5371052689655172 v 0.5562876 h -0.5371052689655172 Z"></path></clipPath></defs></svg>